<svg width="105" height="102" viewBox="0 0 105 102" fill="none" xmlns="http://www.w3.org/2000/svg">
<g id="&#208;&#152;&#208;&#186;&#208;&#190;&#208;&#189;&#208;&#186;&#208;&#184;/&#208;&#145;&#208;&#176;&#208;&#189;&#209;&#130;">
<g id="Page 1">
<path id="Fill 1" fill-rule="evenodd" clip-rule="evenodd" d="M60.876 51.6246C60.876 51.6246 66.717 62.3346 66.966 72.7026C67.215 83.0706 64.95 90.7986 64.95 90.7986L70.071 94.6626L73.566 83.1636V69.6756L70.251 59.6826L64.782 50.9376L62.985 49.4316L60.876 51.6246Z" fill="#F3A7BD"/>
<path id="Fill 3" fill-rule="evenodd" clip-rule="evenodd" d="M42.3267 28.8285C42.3267 28.8285 31.0227 17.5875 22.2777 14.0895C13.5357 10.5915 9.00569 11.6805 9.00569 11.6805C9.00569 11.6805 11.6307 19.5525 12.2397 27.3285C12.6777 32.9325 12.1047 35.4255 12.1047 35.4255L6.73169 36.4485C6.73169 36.4485 11.8497 48.4395 14.7237 52.9365C17.5977 57.4335 20.2197 60.0555 20.2197 60.0555C20.2197 60.0555 27.5877 52.1865 32.5827 50.1885C37.5807 48.1905 39.3297 47.3145 39.3297 47.3145C39.3297 47.3145 36.0807 51.1275 33.7077 55.5915C31.3347 60.0555 29.2107 63.9285 30.3357 71.1735C31.4607 78.4185 33.8337 83.7885 33.8337 83.7885C33.8337 83.7885 38.3817 80.3475 38.3307 76.7955C38.3007 74.6895 37.7577 71.6565 39.4437 61.0575C40.6377 53.5545 46.5657 50.8125 46.5657 50.8125V44.9415C46.5657 44.9415 47.3817 48.4785 52.7547 48.0855C58.1247 47.6895 62.4057 46.0665 63.2787 44.0685C64.1517 42.0675 64.1697 40.6935 64.1697 40.6935C64.1697 40.6935 67.7457 41.5275 74.0457 44.4435C81.9147 48.0855 90.2247 57.6825 90.2247 57.6825L97.6917 30.5775L95.8017 28.5795C95.8017 28.5795 97.3557 26.8935 96.2337 19.6485C95.1087 12.4035 91.1697 3.9705 91.1697 3.9705C91.1697 3.9705 79.4277 9.2175 75.4287 12.8385C71.4327 16.4625 67.1847 19.4415 67.1847 19.4415L64.4367 22.7655L63.3117 25.3305C63.3117 25.3305 58.3167 22.7655 52.3857 22.7655C48.1167 22.7655 44.6997 24.5805 43.4517 25.5795C42.2007 26.5815 42.3267 28.8285 42.3267 28.8285Z" fill="#F08B98"/>
<path id="Fill 5" fill-rule="evenodd" clip-rule="evenodd" d="M65.4885 54.0606C69.0555 59.4156 70.8225 66.1686 71.2245 72.5316C71.6445 79.1466 70.7775 85.8756 68.7885 92.1966C65.8515 90.1476 62.9175 88.1016 59.9805 86.0526C59.9265 86.0136 59.7135 85.9146 59.6895 85.8486C60.1005 84.7536 60.4725 83.6436 60.8055 82.5246C61.5015 80.2326 62.0835 77.9046 62.5845 75.5616C63.0555 73.3566 63.5415 71.1366 63.5955 68.8716C63.6225 66.5406 63.2985 64.2186 62.7825 61.9476C62.0775 58.8426 61.0515 55.8096 59.8065 52.8816C61.0365 52.3896 62.2035 51.5916 63.0375 50.5536C63.9345 51.6696 64.7205 52.8546 65.4885 54.0606C65.2155 53.6346 66.0495 54.9036 65.4885 54.0606ZM51.0495 51.0336C49.8165 51.2376 48.4275 51.4476 47.2515 50.8986C45.6885 50.1696 45.2625 48.6696 45.2595 47.0886C45.2505 42.4446 45.2145 37.8006 45.1635 33.1566C45.1395 30.8076 45.1005 28.4616 45.0645 26.1156C45.0405 24.5886 44.7195 22.8636 46.0095 21.7296C46.9845 20.8776 48.2325 21.0216 49.4265 21.0276C50.2515 21.0306 51.0735 21.0336 51.8955 21.0396C53.7045 21.0486 55.5195 21.0756 57.3285 21.0126C58.1595 20.9856 58.8885 20.9046 59.6835 21.2316C61.2165 21.8616 61.4805 23.2986 61.4535 24.7686C61.4205 26.5986 61.3845 28.4316 61.3545 30.2646C61.2795 34.7166 61.2345 39.1716 61.2255 43.6236C61.2225 44.7306 61.2075 45.8376 61.2015 46.9446C61.1985 47.3196 61.2465 47.7966 61.1325 48.1566C60.5745 49.8936 58.4145 50.9676 56.7075 51.1026C56.2665 51.1356 55.6455 51.2826 55.4115 50.8626C55.2165 50.5176 54.6315 49.5696 54.6315 49.5696C54.0045 50.6556 51.2925 50.9886 51.0495 51.0336C52.2975 50.8146 50.4255 51.1356 51.0495 51.0336ZM40.8135 45.4056C39.8025 45.4836 38.4585 45.8406 37.5105 46.2036C36.4785 46.5996 35.4195 46.9566 34.4325 47.4516C33.1185 48.1056 31.8645 48.7926 30.6045 49.5456C25.0815 52.8516 20.2305 57.6816 16.1325 62.5806C13.6815 58.6116 11.3025 54.5916 9.11547 50.4666C6.98547 46.4526 4.94846 42.3276 3.55646 37.9926C7.21346 37.2666 10.8675 36.5406 14.5245 35.8146C15.3015 35.6616 16.0785 35.5086 16.8525 35.3526C17.0055 35.3226 17.1585 35.2926 17.3115 35.2626C17.3535 35.2536 17.0895 34.8966 16.8165 34.5456C16.4865 34.1166 15.9555 33.8946 15.4185 33.9516L12.7935 34.2426C11.5455 34.3776 10.3005 34.5156 9.05546 34.6536C8.76146 29.9316 8.29346 25.2186 7.48346 20.5566C6.66146 15.8316 5.50346 11.1786 4.27646 6.54659C8.80946 5.4336 13.6875 5.62859 18.1365 7.0146C23.0325 8.53859 27.2145 11.6256 31.0065 14.9946C33.5115 17.2206 35.8635 19.6146 38.1075 22.1046L40.4535 24.7086C40.4925 24.7506 40.5315 24.7926 40.5705 24.8376C40.9845 25.2936 41.3445 26.1666 41.3715 26.7816C41.3985 27.4326 41.4255 28.0836 41.4525 28.7346C41.5935 32.1786 41.7615 35.6196 41.9205 39.0636C42.0105 40.7646 42.1005 42.4626 42.1935 44.1606C42.2115 44.5206 42.2295 44.8776 42.2505 45.2346C42.1995 45.2826 41.9415 45.2706 41.8785 45.2796C41.5245 45.3216 41.1705 45.3636 40.8135 45.4056ZM104.503 21.3726C104.227 17.1456 103.636 12.9486 102.352 8.90459C102.283 8.68859 101.917 7.92659 101.5 7.0836C100.738 5.5536 98.8905 4.9146 97.3485 5.6586C97.3485 5.6586 98.1315 6.21959 98.5515 7.28759C98.9025 8.18759 99.2745 9.0936 99.4995 10.0356C100.036 12.0756 100.438 14.1426 100.66 16.2426C101.116 20.5536 101.113 24.9126 100.726 29.2296C94.3845 27.8526 87.8145 28.7436 81.5595 30.0846C81.1215 30.1776 80.4615 30.3486 79.9275 30.4926C79.4985 30.6066 79.3275 31.1256 79.6065 31.4736C80.0415 32.0076 80.5965 32.6316 80.8005 32.5956C81.3855 32.4906 80.6115 32.6316 81.1935 32.5266C81.9285 32.3916 82.6635 32.2926 83.4045 32.1906C87.7425 31.6506 92.0445 31.4736 96.3915 32.0976C93.2805 41.2896 90.9675 50.7006 88.7775 60.1446C84.5295 55.4286 79.4865 51.1356 73.6995 48.4176C71.1045 47.1996 68.3805 46.1706 65.5335 45.7326C65.2875 45.6936 64.4835 45.7146 64.3155 45.5436C64.3755 44.4516 64.4385 43.3566 64.4955 42.2616C64.6125 40.0896 64.7175 37.9176 64.8195 35.7426C64.9275 33.3666 65.0295 30.9906 65.1225 28.6116C65.1585 27.6336 65.1975 26.6526 65.2365 25.6746C65.2665 24.8736 65.9865 24.1566 66.4545 23.5326C69.1875 19.8966 72.5175 16.7076 76.1625 13.9956C78.9195 11.9466 81.8355 10.1226 84.8295 8.43959C88.4565 6.39959 91.7415 4.9926 94.0005 4.1316C95.6475 3.50159 96.4005 1.5936 95.6445 0.000595093C89.1915 1.7496 83.7795 4.9836 78.2535 8.6706C73.1475 12.0786 68.4105 16.1166 64.6905 21.0306C63.4935 18.4446 60.9585 17.1396 58.1955 17.1336C55.9095 17.1276 53.6235 17.1186 51.3375 17.1306C49.7955 17.1396 48.1155 16.9836 46.6005 17.2836C43.7145 17.8566 41.5155 20.3616 41.2755 23.2836C36.3465 17.4876 31.1925 11.5716 24.6795 7.50359C20.7495 5.0526 16.2525 3.5916 11.6325 3.2646C9.24447 3.0936 6.83547 3.2136 4.48046 3.6306C4.40846 3.6456 0.697465 4.4766 0.763465 4.68059C3.25946 12.6906 5.54546 20.6946 6.71546 29.0226C6.79346 29.5656 7.45947 34.3476 7.36346 34.8066C7.34546 34.8186 7.32747 34.8306 7.30947 34.8426C4.87347 35.1156 2.43446 35.3736 0.00146484 35.6556C0.181465 36.2646 1.54646 40.7286 2.09846 42.2406C3.33146 45.6306 5.04146 48.8916 6.73346 52.0716C9.56546 57.3606 12.6855 62.4756 15.8595 67.5636C20.9505 60.9276 27.1065 54.3006 34.7055 50.5116C31.0575 55.7526 27.7965 62.2056 28.2315 68.7876C28.7325 76.3806 31.4145 84.0906 35.1645 90.6786L36.5415 93.0996C38.0625 90.3006 39.5805 87.5016 41.1015 84.6996C42.1935 82.6926 43.2855 80.6826 44.3745 78.6756C44.6685 78.1386 44.9595 77.6016 45.2505 77.0646C45.2865 76.9986 45.3195 76.9356 45.3555 76.8726L45.7095 76.2216C45.8055 76.0416 45.6015 75.8766 45.4965 75.7176C43.4715 72.6276 42.1875 68.7456 41.9385 65.0466C41.8425 63.6606 41.8425 62.2896 41.9445 60.9006C41.9535 60.7746 41.9775 60.4536 42.0075 60.0906C42.0735 59.2386 41.4945 58.4706 40.6575 58.2996L40.3425 58.2696C40.3425 58.2696 40.3605 59.3286 40.2165 60.7746C40.0215 62.6976 39.8265 65.3046 39.9735 67.0146C40.1025 68.4876 40.3725 69.9546 40.7415 71.3886C41.0055 72.4236 41.3385 73.4436 41.7225 74.4426C41.8335 74.7276 42.5655 75.9636 42.4305 76.1946C40.5285 79.3986 38.6265 82.6026 36.7245 85.8066C36.6855 85.8786 36.6435 85.9476 36.6015 86.0166C34.5465 81.8286 32.9535 77.4306 31.9905 72.8646C31.4655 70.3896 31.2405 67.8906 31.5045 65.3736C31.7715 62.8026 32.7135 60.2256 33.8085 57.8976C34.7955 55.8036 35.9805 53.8086 37.2945 51.9036C38.0055 50.8776 38.7585 49.8756 39.5565 48.9156C39.7605 48.6666 40.0395 48.4896 40.3515 48.4116C40.6665 48.3336 40.9755 48.2676 41.3025 48.2256C41.6745 48.1806 42.0465 48.1386 42.4155 48.0936C42.6525 51.2706 45.6435 53.8296 48.8145 53.5716C49.6455 53.5026 50.4645 53.3766 51.2745 53.1906C51.7665 53.0766 52.2555 52.9386 52.7325 52.7736C52.9665 52.6926 53.0955 52.5756 53.3235 52.6896C53.6625 52.8636 54.0135 53.0016 54.3795 53.1186C55.1385 53.3646 55.9455 53.3736 56.7345 53.4936C57.1515 53.5596 57.2655 54.2256 57.4275 54.6186C57.6735 55.2186 57.9105 55.8246 58.1385 56.4336C59.7495 60.7866 61.1715 65.6886 60.6345 70.3806C60.3855 72.5556 59.8605 74.7366 59.3595 76.8666C58.8315 79.1076 58.2225 81.3396 57.5055 83.5296C57.3465 84.0156 57.1185 84.4626 56.9175 84.9336C56.8035 85.1946 56.8035 85.5786 56.6805 85.8096C56.5275 86.0976 56.0505 86.6136 56.3265 86.8536C56.6955 87.1716 57.0645 87.4926 57.4335 87.8076C58.8555 89.0226 60.2775 90.2346 61.6995 91.4466C64.2735 93.6426 66.7935 95.9556 69.4755 98.0046C69.9705 98.3826 70.4625 98.7606 70.9545 99.1356C71.8965 96.4176 72.7845 93.7176 73.3785 90.8946C74.3805 86.1186 74.8425 81.2076 74.6445 76.3296C74.2875 67.5306 71.6985 58.4286 66.1485 51.4476C65.8125 51.0216 65.4765 50.5956 65.1375 50.1696C64.7715 49.7106 64.3755 49.2756 63.9765 48.8406C64.0755 48.5316 64.1415 48.2196 64.1805 47.8956C69.0555 48.8586 73.3575 51.0306 77.3475 53.9466C81.0465 56.6256 84.3015 60.0186 87.1065 63.6036C88.3455 65.2056 89.5425 66.8406 90.7725 68.4456C92.0265 61.5636 93.2325 54.6726 94.6665 47.8266C95.6475 43.1436 96.7515 38.4906 98.0475 33.8826C98.1255 33.6066 98.2035 33.3306 98.2845 33.0546C98.3775 32.7216 98.2935 32.4666 98.6835 32.5536C99.1725 32.6586 99.6525 32.7936 100.129 32.9406C100.687 33.1146 101.569 33.4776 102.088 33.7536L104.278 34.9086C104.428 33.7266 104.65 32.5386 104.659 31.3476C104.674 29.6826 104.746 28.0206 104.767 26.3556C104.791 24.6756 104.593 23.0436 104.503 21.3726C104.566 22.5426 104.428 20.1996 104.503 21.3726Z" fill="#181716"/>
</g>
</g>
</svg>
